<svg width="42" height="77" viewBox="0 0 42 77" fill="none" xmlns="http://www.w3.org/2000/svg">
<path d="M38.0739 73.6979V71.5979H39.0783C40.7217 71.5979 42 70.3196 42 68.6761C42 67.0327 40.7217 65.7544 39.0783 65.7544H38.0739V19.1892C38.0739 17.5457 36.7957 16.2675 35.1522 16.2675H30.9522V7.68484H32.413C34.4217 7.68484 36.0652 6.04136 36.0652 4.03267C36.0652 2.02397 34.4217 0.380493 32.413 0.380493H9.58696C7.57826 0.380493 5.93478 2.02397 5.93478 4.03267C5.93478 6.04136 7.57826 7.68484 9.58696 7.68484H11.0478V16.2675H6.84783C5.20435 16.2675 3.92609 17.5457 3.92609 19.1892V65.7544H2.92174C1.27826 65.7544 0 67.0327 0 68.6761C0 70.3196 1.27826 71.5979 2.92174 71.5979H3.92609V73.6979C3.92609 75.3414 5.20435 76.6196 6.84783 76.6196H35.0609C36.7044 76.6196 38.0739 75.3414 38.0739 73.6979ZM25.0174 22.0196V39.5501H16.8913V22.0196H25.0174ZM11.1391 43.0196C11.1391 43.2022 11.0478 43.3848 11.0478 43.5674V49.3196C11.0478 50.9631 12.3261 52.2414 13.9696 52.2414H27.9391C29.5826 52.2414 30.8609 50.9631 30.8609 49.3196V43.5674C30.8609 43.3848 30.8609 43.2022 30.7696 43.0196C30.7696 42.837 30.8609 42.6544 30.8609 42.4718V22.0196H32.1391V65.6631H9.86087V22.0196H11.1391V42.4718C11.0478 42.6544 11.1391 42.837 11.1391 43.0196ZM16.9826 7.59354H25.1087V16.1761H16.9826V7.59354Z" fill="#292943"/>
<path d="M11.0478 60.824C11.0478 62.4674 12.3261 63.7457 13.9695 63.7457H27.9391C29.5826 63.7457 30.8608 62.4674 30.8608 60.824V57.9935C30.8608 56.35 29.5826 55.0718 27.9391 55.0718H13.9695C12.3261 55.0718 11.0478 56.35 11.0478 57.9935V60.824V60.824Z" fill="#292943"/>
</svg>
