<svg width="56" height="77" viewBox="0 0 56 77" fill="none" xmlns="http://www.w3.org/2000/svg">
<path d="M50.479 2.0497C49.9349 1.17925 48.9557 0.744019 47.8676 0.744019H8.0443C7.06504 0.744019 6.08578 1.28805 5.43294 2.0497C4.8889 2.92015 4.67129 4.00822 5.10652 4.98749L7.71788 11.8423C7.28265 12.0599 6.95623 12.3863 6.62981 12.8216C6.08578 13.692 5.86817 14.7801 6.30339 15.7594L10.5469 27.0753L7.06504 37.4119C6.73862 38.3912 6.84743 39.4792 7.50027 40.2409C7.82669 40.6761 8.15311 41.0025 8.58834 41.2202L0.863052 63.5256V63.6344C-0.00740262 66.681 0.536632 69.8363 2.49515 72.3389C4.34487 74.8415 7.28265 76.2559 10.3292 76.2559H45.6915C48.8469 76.2559 51.6758 74.8415 53.5256 72.3389C55.3753 69.8363 56.0281 66.681 55.1577 63.6344V63.5256L47.4324 41.2202C47.8676 41.0025 48.3028 40.6761 48.5204 40.2409C49.0645 39.3704 49.2821 38.3912 48.9557 37.4119L45.365 27.0753L49.6085 15.7594C49.9349 14.7801 49.8261 13.692 49.2821 12.8216C48.9557 12.3863 48.6292 12.0599 48.194 11.8423L50.8054 4.98749C51.1318 4.00822 51.023 2.92015 50.479 2.0497ZM48.5204 68.5307C47.8676 69.4011 46.7795 69.9452 45.6915 69.9452H10.3292C9.13237 69.9452 8.15311 69.4011 7.50027 68.5307C6.84743 67.6602 6.62981 66.4633 6.95623 65.3753L15.2256 41.4378H41.0128L49.2821 65.3753C49.3909 66.5721 49.1733 67.6602 48.5204 68.5307ZM12.6142 6.94601H43.2977L41.5568 11.4071H14.2463L12.6142 6.94601Z" fill="#292943"/>
<path d="M39.9248 52.1009H15.9873L11.8526 63.9608C11.5262 64.8313 12.179 65.7017 13.1583 65.7017H42.7538C43.6242 65.7017 44.2771 64.8313 44.0594 63.9608L39.9248 52.1009Z" fill="#292943"/>
</svg>
