<svg width="54" height="89" viewBox="0 0 54 89" fill="none" xmlns="http://www.w3.org/2000/svg">
<path d="M37.4095 0.33728H16.5906C15.4073 0.33728 14.4451 1.35839 14.4451 2.6195V7.39839H39.5562V2.6195C39.5562 1.3595 38.5962 0.33728 37.4095 0.33728Z" fill="#292943"/>
<path d="M53.3539 28.2473C53.1751 22.9584 45.6451 20.4484 42.9562 18.1184C41.3551 16.7295 40.5817 14.5795 40.2184 13.0684C41.0595 12.9206 41.7028 12.1906 41.7028 11.305C41.7028 10.315 40.9006 9.51282 39.9106 9.51282H14.0928C13.1017 9.51282 12.3006 10.3162 12.3006 11.305C12.3006 12.1895 12.9428 12.9195 13.7828 13.0684C13.4195 14.5795 12.6473 16.7284 11.0428 18.1184C8.35505 20.4495 0.825051 22.9584 0.646162 28.2473C0.466162 33.5362 0.646162 77.1006 0.646162 77.1006C0.646162 77.1006 -0.250505 88.6628 8.71394 88.6628H22.4284H25.3862H45.2873C54.2506 88.6628 53.3551 77.1006 53.3551 77.1006C53.3551 77.1006 53.5328 33.5362 53.3539 28.2473ZM49.7784 77.3773C49.8517 78.3184 49.7773 82.2062 48.0862 84.0328C47.6706 84.4828 46.9295 85.0773 45.2862 85.0773H25.3851H22.4273H8.71283C7.07727 85.0773 6.33838 84.4873 5.92394 84.0439C4.28061 82.2817 4.14172 78.5339 4.22061 77.3761C4.22839 77.2795 4.23172 77.1817 4.23061 77.085C4.2295 76.6484 4.05505 33.5273 4.2295 28.3684C4.29283 26.4895 7.48949 24.5939 9.82505 23.2084C11.1562 22.4206 12.4128 21.675 13.3917 20.8262C15.275 19.195 16.3306 16.9873 16.9262 15.1306C17.045 14.7173 17.1984 14.0395 17.2984 13.0962H36.6795C36.7617 13.875 36.8817 14.4728 36.9873 14.8906H36.9951C37.5739 16.7917 38.6439 19.125 40.6084 20.8262C41.5862 21.675 42.8439 22.4206 44.1739 23.2084C46.5095 24.5939 49.7062 26.4895 49.7706 28.3684C49.9451 33.5284 49.7706 76.6495 49.7684 77.085C49.7684 77.1828 49.7717 77.2806 49.7784 77.3773Z" fill="#292943"/>
<path d="M45.7829 45.3229H8.21618C8.21285 57.1807 8.28063 73.7362 8.28174 73.9807C8.28174 74.0607 8.27952 74.1418 8.27396 74.2207C8.20729 75.1729 8.32063 78.254 9.67507 79.7029C10.0151 80.0662 10.624 80.5518 11.9673 80.5518H23.2417H25.6729H42.0351C43.3851 80.5518 43.994 80.0629 44.3362 79.6951C45.7262 78.1907 45.7884 74.9951 45.7273 74.2218C45.7217 74.1429 45.7184 74.0618 45.7195 73.9818C45.7206 73.7373 45.7873 57.1807 45.7829 45.3229Z" fill="#292943"/>
</svg>
