<svg width="58" height="77" viewBox="0 0 58 77" fill="none" xmlns="http://www.w3.org/2000/svg">
<path d="M11.0198 23.1995H41.7182C43.8006 23.1995 45.4878 21.5121 45.4878 19.4296C45.4878 17.3472 43.8005 15.66 41.7182 15.66H40.5983C39.186 10.6386 35.2048 6.70719 30.1526 5.37214C30.2107 5.10574 30.2455 4.83058 30.2455 4.54682C30.2455 2.40689 28.5091 0.670166 26.3691 0.670166C24.2289 0.670166 22.4926 2.40674 22.4926 4.54682C22.4926 4.83058 22.5274 5.10574 22.5853 5.37214C17.5329 6.70719 13.5517 10.6386 12.1398 15.66H11.0199C8.9375 15.66 7.25012 17.3473 7.25012 19.4296C7.25012 21.5119 8.93735 23.1995 11.0198 23.1995Z" fill="#292943"/>
<path d="M43.9857 31.0058V29.2775C43.9857 27.0123 42.1412 25.1666 39.8749 25.1666H1.61261C1.09243 25.1666 0.613589 25.4562 0.370559 25.9175C0.128912 26.3789 0.162115 26.9361 0.457718 27.3656L8.75073 39.3964V72.2189C8.75073 74.4854 10.5964 76.3299 12.8627 76.3299H39.8748C42.1412 76.3299 43.9855 74.4854 43.9855 72.2189V61.2946C51.7152 60.5791 57.7899 54.0639 57.7899 46.1506C57.79 38.2375 51.7153 31.7212 43.9857 31.0058ZM39.0258 62.3775H13.7146V30.1279H23.8558V53.3517H20.0895C18.7018 53.3517 17.5764 54.4771 17.5764 55.8649C17.5764 57.253 18.7018 58.378 20.0895 58.378H32.6483C34.036 58.378 35.1614 57.253 35.1614 55.8649C35.1614 54.4771 34.036 53.3517 32.6483 53.3517H28.8823V30.1279H38.4808C38.7815 30.1279 39.0256 30.3722 39.0256 30.6727V62.3775H39.0258ZM43.9857 54.9404V37.3601C48.2383 38.0426 51.507 41.7087 51.507 46.1509C51.507 50.5928 48.2383 54.2579 43.9857 54.9404Z" fill="#292943"/>
</svg>
