<svg width="64" height="77" viewBox="0 0 64 77" fill="none" xmlns="http://www.w3.org/2000/svg">
<path d="M63.8653 2.74383C63.778 2.12382 63.4486 1.56368 62.9491 1.18612C62.4496 0.808561 61.8208 0.644367 61.2005 0.729506L35.7244 4.27258C35.1883 4.34702 34.6941 4.60329 34.3244 4.99851C33.9547 5.39374 33.7319 5.90394 33.6934 6.44376L33.3438 11.3362H2.47464C2.15025 11.3362 1.82934 11.4031 1.5319 11.5325C1.23447 11.662 0.966878 11.8513 0.745814 12.0887C0.524749 12.3261 0.354945 12.6065 0.246982 12.9124C0.13902 13.2183 0.0952129 13.5431 0.118291 13.8667L4.42084 74.0989C4.46358 74.6946 4.73038 75.2521 5.16755 75.6591C5.60472 76.0661 6.17982 76.2924 6.77712 76.2925H45.413C46.0103 76.2924 46.5854 76.0661 47.0225 75.6591C47.4597 75.2521 47.7265 74.6946 47.7693 74.0989L52.0718 13.8667C52.0949 13.5431 52.0511 13.2183 51.9431 12.9124C51.8352 12.6065 51.6654 12.3261 51.4443 12.0887C51.2233 11.8513 50.9557 11.662 50.6583 11.5325C50.3609 11.4031 50.04 11.3363 49.7156 11.3362H38.0801L38.2691 8.68816L61.851 5.40863C62.1582 5.36592 62.454 5.26311 62.7216 5.10608C62.9891 4.94905 63.223 4.74086 63.4101 4.49341C63.5971 4.24596 63.7336 3.96409 63.8117 3.6639C63.8898 3.3637 63.908 3.05106 63.8653 2.74383ZM33.0062 16.0603L32.5842 21.9654H5.4332L5.01135 16.0603H33.0062ZM43.2135 71.5684H8.97657L5.7707 26.6895H46.4194L43.2135 71.5684ZM47.1787 16.0603L46.7569 21.9654H37.3208L37.7427 16.0603H47.1787Z" fill="#292943"/>
<path d="M43.2135 71.5684H8.97657L5.7707 26.6895H46.4194L43.2135 71.5684Z" fill="#292943"/>
<path d="M29.8648 38.6013L21.5976 30.3341C21.3783 30.1147 21.118 29.9407 20.8314 29.8219C20.5449 29.7032 20.2377 29.6421 19.9276 29.6421C19.6174 29.6421 19.3102 29.7032 19.0237 29.8219C18.7371 29.9407 18.4768 30.1147 18.2575 30.3341L9.99035 38.6013C9.77096 38.8205 9.59693 39.0809 9.47819 39.3674C9.35945 39.654 9.29834 39.9611 9.29834 40.2713C9.29834 40.5815 9.35945 40.8886 9.47819 41.1752C9.59693 41.4617 9.77096 41.7221 9.99035 41.9413L18.2575 50.2085C18.4768 50.4279 18.7371 50.6019 19.0237 50.7207C19.3102 50.8394 19.6174 50.9005 19.9276 50.9005C20.2377 50.9005 20.5449 50.8394 20.8314 50.7207C21.118 50.6019 21.3783 50.4279 21.5976 50.2085L29.8648 41.9413C30.0841 41.7221 30.2582 41.4617 30.3769 41.1752C30.4957 40.8886 30.5568 40.5815 30.5568 40.2713C30.5568 39.9611 30.4957 39.654 30.3769 39.3674C30.2582 39.0809 30.0841 38.8205 29.8648 38.6013ZM19.9275 45.1978L15.001 40.2713L19.9275 35.3448L24.8541 40.2713L19.9275 45.1978Z" fill="white"/>
<path d="M19.9275 45.1978L15.001 40.2713L19.9275 35.3448L24.8541 40.2713L19.9275 45.1978Z" fill="white"/>
<path d="M34.8557 45.364C34.6365 45.1446 34.3761 44.9706 34.0895 44.8519C33.803 44.7331 33.4959 44.672 33.1857 44.672C32.8755 44.672 32.5684 44.7331 32.2818 44.8519C31.9953 44.9706 31.7349 45.1446 31.5156 45.364L25.02 51.8596C24.8006 52.0789 24.6266 52.3393 24.5079 52.6258C24.3891 52.9124 24.328 53.2195 24.328 53.5297C24.328 53.8399 24.3891 54.147 24.5079 54.4335C24.6266 54.7201 24.8006 54.9804 25.02 55.1997L31.5156 61.6953C31.7349 61.9147 31.9953 62.0888 32.2818 62.2075C32.5684 62.3262 32.8755 62.3874 33.1857 62.3874C33.4959 62.3874 33.803 62.3262 34.0896 62.2075C34.3761 62.0888 34.6365 61.9147 34.8557 61.6953L41.3514 55.1997C41.5707 54.9804 41.7448 54.7201 41.8635 54.4335C41.9822 54.147 42.0434 53.8399 42.0434 53.5297C42.0434 53.2195 41.9822 52.9124 41.8635 52.6258C41.7448 52.3393 41.5707 52.0789 41.3514 51.8596L34.8557 45.364ZM33.1857 56.6847L30.0307 53.5297L33.1857 50.3747L36.3406 53.5297L33.1857 56.6847Z" fill="white"/>
<path d="M33.1857 56.6847L30.0307 53.5297L33.1857 50.3747L36.3406 53.5297L33.1857 56.6847Z" fill="white"/>
</svg>
