<svg width="165" height="212" viewBox="0 0 165 212" fill="none" xmlns="http://www.w3.org/2000/svg">
<path d="M9 108H118V177C118 191.359 106.359 203 92 203H35C20.6406 203 9 191.359 9 177V108Z" fill="#816157"/>
<path d="M131.314 97.2495H127.135V73.274C127.135 72.6748 127.017 72.0815 126.788 71.5279C126.559 70.9743 126.223 70.4712 125.799 70.0475C125.376 69.6238 124.873 69.2878 124.319 69.0585C123.765 68.8293 123.172 68.7114 122.573 68.7115H4.5625C3.9633 68.7114 3.36994 68.8293 2.81632 69.0585C2.2627 69.2878 1.75968 69.6238 1.33598 70.0475C0.91228 70.4712 0.576214 70.9743 0.346982 71.5279C0.11775 72.0815 -0.000155698 72.6748 1.54308e-07 73.274V175.088C0.0451487 184.716 3.9073 193.932 10.7392 200.715C17.571 207.499 26.8146 211.295 36.4421 211.272H90.6886C100.317 211.295 109.561 207.499 116.393 200.716C123.226 193.932 127.089 184.716 127.135 175.088V162.938H131.314C140.021 162.927 148.369 159.464 154.526 153.307C160.683 147.15 164.146 138.803 164.156 130.096C164.043 121.421 160.546 113.133 154.412 106.997C148.277 100.862 139.99 97.3644 131.314 97.2495ZM118.01 175.088C117.967 182.297 115.066 189.194 109.944 194.267C104.822 199.34 97.8975 202.173 90.6887 202.147H36.4421C29.2338 202.173 22.3093 199.339 17.1881 194.266C12.0668 189.194 9.16705 182.296 9.125 175.088V77.8365H118.01L118.01 175.088ZM131.314 153.813H127.135V106.374H131.314C137.58 106.458 143.565 108.984 147.995 113.414C152.425 117.845 154.95 123.831 155.031 130.096C155.024 136.384 152.523 142.412 148.077 146.858C143.631 151.305 137.602 153.806 131.314 153.813Z" fill="#292943"/>
<path d="M32.8464 49.8C31.8793 50.5235 31.2384 51.601 31.0643 52.7962C30.8902 53.9915 31.1971 55.207 31.9176 56.1764C32.6382 57.1458 33.7137 57.79 34.9084 57.9678C36.1031 58.1456 37.3195 57.8425 38.2911 57.1249C50.6999 47.9041 44.3684 34.8649 38.7813 23.3584C34.0405 13.6007 39.8773 9.25877 41.1204 8.47461C42.158 7.85186 42.9056 6.84246 43.1989 5.66846C43.4922 4.49447 43.3071 3.25205 42.6844 2.21452C42.0616 1.17699 41.0522 0.429347 39.8782 0.136057C38.7042 -0.157234 37.4618 0.0278561 36.4243 0.650608C31.3717 3.64698 23.6457 13.0794 30.5741 27.3462C37.9436 42.524 37.605 46.2645 32.8464 49.8Z" fill="#292943"/>
<path d="M58.1184 49.8C57.1512 50.5235 56.5104 51.601 56.3363 52.7962C56.1621 53.9915 56.469 55.207 57.1896 56.1764C57.9101 57.1458 58.9856 57.79 60.1803 57.9678C61.375 58.1456 62.5915 57.8425 63.5631 57.1249C75.9763 47.9019 69.6404 34.8627 64.0488 23.3584C59.3125 13.6052 65.1448 9.26324 66.3879 8.47685C67.4174 7.85064 68.1573 6.84263 68.4462 5.67283C68.7351 4.50303 68.5496 3.26644 67.93 2.23297C67.3105 1.1995 66.3072 0.453072 65.1393 0.156615C63.9714 -0.139842 62.7337 0.0377429 61.6962 0.650608C56.6436 3.64475 48.9132 13.0794 55.8416 27.3462C63.2156 42.524 62.8769 46.2645 58.1184 49.8Z" fill="#292943"/>
<path d="M83.3859 49.8C82.4188 50.5235 81.7779 51.601 81.6038 52.7962C81.4297 53.9915 81.7366 55.207 82.4571 56.1764C83.1777 57.1458 84.2532 57.79 85.4479 57.9678C86.6426 58.1456 87.859 57.8425 88.8306 57.1249C101.239 47.9041 94.9079 34.8649 89.3208 23.3584C84.58 13.603 90.4169 9.261 91.6555 8.47685C92.6849 7.85064 93.4249 6.84263 93.7138 5.67283C94.0027 4.50303 93.8171 3.26644 93.1976 2.23297C92.578 1.1995 91.5748 0.453072 90.4069 0.156615C89.239 -0.139842 88.0012 0.0377429 86.9638 0.650608C81.9067 3.64698 74.1807 13.0794 81.1136 27.3462C88.4831 42.524 88.1445 46.2645 83.3859 49.8Z" fill="#292943"/>
</svg>
