<svg width="50" height="77" viewBox="0 0 50 77" fill="none" xmlns="http://www.w3.org/2000/svg">
<path d="M36.3337 50.1617H10.7506L3.28273 72.5626C2.98681 73.4518 3.1355 74.4284 3.6836 75.1894C4.2317 75.9503 5.11217 76.4007 6.04948 76.4007H41.0348C41.9721 76.4007 42.8511 75.9503 43.3992 75.1894C43.9473 74.4299 44.0975 73.4532 43.8001 72.5626L36.3337 50.1617Z" fill="#292943"/>
<path d="M41.0348 15.1765H38.9269L26.4576 7.69543V3.51469C26.4576 1.90536 25.1515 0.599243 23.5421 0.599243C21.9328 0.599243 20.6267 1.90536 20.6267 3.51469V7.69543L8.15734 15.1765H3.13403C2.0903 15.1765 1.12674 15.7348 0.606338 16.6386C0.0859315 17.5423 0.0903026 18.6575 0.615083 19.5584C2.65881 23.0686 8.25209 32.9694 9.55529 36.5744C10.0655 37.9869 10.7798 41.4723 11.3148 44.3294H35.8453L40.51 21.0059H41.0348C42.6427 21.0059 43.9502 22.3135 43.9502 23.9213V35.5831C43.9502 37.1924 45.2564 38.4986 46.8657 38.4986C48.475 38.4986 49.7811 37.1924 49.7811 35.5831V23.9213C49.7811 19.0992 45.8584 15.1765 41.0348 15.1765Z" fill="#292943"/>
</svg>
