<svg width="72" height="77" viewBox="0 0 72 77" fill="none" xmlns="http://www.w3.org/2000/svg">
<path d="M68.179 45.9582C70.274 45.9582 71.95 44.2822 71.95 42.1872C71.95 40.0922 70.274 38.4162 68.179 38.4162H53.3465L71.4472 5.56678C72.0338 4.56119 72.0338 3.1366 71.3634 1.9634C70.693 0.790209 69.436 0.119812 68.179 0.119812H3.82097C2.48018 0.119812 1.30698 0.790209 0.636585 1.9634C-0.0338115 3.1366 -0.0338118 4.56119 0.552785 5.65058L18.6535 38.5H3.82097C1.72598 38.5 0.0499878 40.176 0.0499878 42.271C0.0499878 44.366 1.72598 46.042 3.82097 46.042H12.7875V48.8074C12.7875 50.9023 14.4635 52.5783 16.5585 52.5783H55.4415C57.5365 52.5783 59.2125 50.9023 59.2125 48.8074V46.042H68.179V45.9582Z" fill="#292943"/>
<path d="M42.4526 70.4276C42.4526 66.9081 36 57.1873 36 57.1873C36 57.1873 29.5474 66.9081 29.5474 70.4276C29.5474 73.9472 32.3966 76.8802 36 76.8802C39.5196 76.8802 42.4526 73.9472 42.4526 70.4276Z" fill="#292943"/>
</svg>
